<?xml version="1.0" standalone="no"?>
<!DOCTYPE svg PUBLIC "-//W3C//DTD SVG 20010904//EN"
 "http://www.w3.org/TR/2001/REC-SVG-20010904/DTD/svg10.dtd">
<svg version="1.0" xmlns="http://www.w3.org/2000/svg"
 width="360.000000pt" height="423.000000pt" viewBox="0 0 360.000000 423.000000"
 preserveAspectRatio="xMidYMid meet">

<g transform="translate(0.000000,423.000000) scale(0.100000,-0.100000)"
fill="#000000" stroke="none">
<path d="M1490 3655 c0 -368 -4 -575 -10 -575 -18 0 -135 47 -205 83 -314 159
-548 471 -610 811 -8 45 -17 111 -21 149 l-6 67 -319 0 -319 0 0 -57 c0 -87
26 -264 56 -382 149 -594 603 -1079 1190 -1269 65 -22 147 -45 182 -52 39 -8
62 -18 62 -26 0 -12 -116 -14 -705 -14 l-705 0 0 -315 0 -315 638 0 637 -1
-119 -39 c-610 -201 -1069 -717 -1200 -1352 -19 -91 -36 -235 -36 -305 l0 -53
319 0 319 0 7 68 c23 235 76 393 189 566 135 208 348 376 584 460 l72 26 0
-565 0 -565 310 0 310 0 0 565 0 565 73 -26 c360 -129 643 -438 737 -803 17
-67 40 -223 40 -273 0 -17 22 -18 320 -18 l320 0 0 45 c0 81 -20 237 -46 355
-139 626 -626 1145 -1249 1331 -59 17 -51 17 578 18 l637 1 0 315 0 315 -705
0 c-590 0 -705 2 -705 14 0 8 22 18 60 25 105 21 281 81 398 136 490 233 845
668 982 1205 23 89 50 289 50 366 l0 54 -319 0 -318 0 -13 -112 c-17 -153 -49
-260 -120 -403 -113 -228 -283 -400 -505 -512 -71 -36 -187 -83 -205 -83 -6 0
-10 207 -10 575 l0 575 -310 0 -310 0 0 -575z"/>
</g>
</svg>
